<svg width="48" height="48" viewBox="0 0 48 48" fill="none" xmlns="http://www.w3.org/2000/svg">
<rect width="48" height="48" fill="#B4B4B4"/>
<path d="M25.5 11.25C25.5 10.2117 25.8079 9.19662 26.3848 8.33326C26.9617 7.4699 27.7816 6.79699 28.7409 6.39963C29.7002 6.00227 30.7558 5.89831 31.7742 6.10088C32.7926 6.30345 33.7281 6.80347 34.4623 7.53769C35.1965 8.27192 35.6966 9.20738 35.8991 10.2258C36.1017 11.2442 35.9977 12.2998 35.6004 13.2591C35.203 14.2184 34.5301 15.0383 33.6667 15.6152C32.8034 16.1921 31.7884 16.5 30.75 16.5C29.3591 16.4951 28.0266 15.9404 27.0431 14.9569C26.0597 13.9734 25.5049 12.6409 25.5 11.25V11.25ZM13.5 20.25C13.5 19.2116 13.1921 18.1966 12.6152 17.3333C12.0383 16.4699 11.2184 15.797 10.2591 15.3996C9.29978 15.0023 8.24418 14.8983 7.22578 15.1009C6.20738 15.3035 5.27192 15.8035 4.53769 16.5377C3.80347 17.2719 3.30345 18.2074 3.10088 19.2258C2.89831 20.2442 3.00227 21.2998 3.39963 22.2591C3.79699 23.2184 4.4699 24.0383 5.33326 24.6152C6.19662 25.1921 7.21165 25.5 8.25 25.5C9.64087 25.4951 10.9734 24.9403 11.9569 23.9569C12.9404 22.9734 13.4951 21.6409 13.5 20.25ZM17.25 16.5C18.2884 16.5 19.3034 16.1921 20.1667 15.6152C21.0301 15.0383 21.703 14.2184 22.1004 13.2591C22.4977 12.2998 22.6017 11.2442 22.3991 10.2258C22.1966 9.20738 21.6965 8.27192 20.9623 7.53769C20.2281 6.80347 19.2926 6.30345 18.2742 6.10088C17.2558 5.89831 16.2002 6.00227 15.2409 6.39963C14.2816 6.79699 13.4617 7.4699 12.8848 8.33326C12.3079 9.19662 12 10.2117 12 11.25C12.0049 12.6409 12.5597 13.9734 13.5432 14.9569C14.5266 15.9404 15.8591 16.4951 17.25 16.5V16.5ZM35.0813 27.9C34.319 27.4811 33.6469 26.9161 33.1031 26.2372C32.5594 25.5584 32.1548 24.779 31.9125 23.9438C31.4199 22.2255 30.3814 20.7143 28.9539 19.6385C27.5264 18.5628 25.7875 17.9809 24 17.9809C22.2125 17.9809 20.4737 18.5628 19.0461 19.6385C17.6186 20.7143 16.5801 22.2255 16.0875 23.9438C15.5989 25.6256 14.4671 27.047 12.9375 27.9C11.4684 28.6929 10.3059 29.9534 9.63399 31.4816C8.96213 33.0099 8.81936 34.7186 9.22831 36.3372C9.63726 37.9558 10.5745 39.3916 11.8917 40.4174C13.2088 41.4431 14.8306 42 16.5 42C17.4975 41.999 18.4851 41.8015 19.4063 41.4188C22.3404 40.2032 25.6359 40.1965 28.575 41.4C29.4993 41.796 30.4944 42.0001 31.5 42C33.171 42.0042 34.7956 41.4503 36.116 40.426C37.4363 39.4018 38.3768 37.9659 38.7882 36.3463C39.1996 34.7267 39.0582 33.0161 38.3867 31.4859C37.7151 29.9558 36.5518 28.6937 35.0813 27.9V27.9ZM39.75 15C38.7117 15 37.6966 15.3079 36.8333 15.8848C35.9699 16.4617 35.297 17.2816 34.8996 18.2409C34.5023 19.2002 34.3983 20.2558 34.6009 21.2742C34.8035 22.2926 35.3035 23.2281 36.0377 23.9623C36.7719 24.6965 37.7074 25.1966 38.7258 25.3991C39.7442 25.6017 40.7998 25.4977 41.7591 25.1004C42.7184 24.703 43.5383 24.0301 44.1152 23.1667C44.6921 22.3034 45 21.2884 45 20.25C44.9951 18.8591 44.4404 17.5266 43.4569 16.5432C42.4734 15.5597 41.1409 15.0049 39.75 15V15Z" fill="#FDFFFC"/>
</svg>
