<svg width="48" height="48" viewBox="0 0 48 48" fill="none" xmlns="http://www.w3.org/2000/svg">
<ellipse cx="24" cy="24" rx="24" ry="24" fill="white"/>
<g clip-path="url(#clip0_39_57)">
<path d="M30.75 15C29.7554 15 28.8016 15.3951 28.0984 16.0984C27.3951 16.8016 27 17.7554 27 18.75C27 18.9489 26.921 19.1397 26.7803 19.2803C26.6397 19.421 26.4489 19.5 26.25 19.5C26.0511 19.5 25.8603 19.421 25.7197 19.2803C25.579 19.1397 25.5 18.9489 25.5 18.75C25.5 17.7117 25.8079 16.6966 26.3848 15.8333C26.9617 14.9699 27.7816 14.297 28.7409 13.8996C29.7002 13.5023 30.7558 13.3983 31.7742 13.6009C32.7926 13.8035 33.7281 14.3035 34.4623 15.0377C35.1965 15.7719 35.6966 16.7074 35.8991 17.7258C36.1017 18.7442 35.9977 19.7998 35.6004 20.7591C35.203 21.7184 34.5301 22.5383 33.6667 23.1152C32.8034 23.6921 31.7884 24 30.75 24H12.75C12.5511 24 12.3603 23.921 12.2197 23.7803C12.079 23.6397 12 23.4489 12 23.25C12 23.0511 12.079 22.8603 12.2197 22.7197C12.3603 22.579 12.5511 22.5 12.75 22.5H30.75C31.7446 22.5 32.6984 22.1049 33.4016 21.4017C34.1049 20.6984 34.5 19.7446 34.5 18.75C34.5 17.7554 34.1049 16.8016 33.4016 16.0984C32.6984 15.3951 31.7446 15 30.75 15ZM20.25 16.5C19.8522 16.5 19.4706 16.658 19.1893 16.9393C18.908 17.2206 18.75 17.6022 18.75 18C18.75 18.1989 18.671 18.3897 18.5303 18.5303C18.3897 18.671 18.1989 18.75 18 18.75C17.8011 18.75 17.6103 18.671 17.4697 18.5303C17.329 18.3897 17.25 18.1989 17.25 18C17.25 17.4067 17.4259 16.8266 17.7556 16.3333C18.0852 15.8399 18.5538 15.4554 19.1019 15.2284C19.6501 15.0013 20.2533 14.9419 20.8353 15.0576C21.4172 15.1734 21.9518 15.4591 22.3713 15.8787C22.7909 16.2982 23.0766 16.8328 23.1924 17.4147C23.3081 17.9967 23.2487 18.5999 23.0216 19.1481C22.7946 19.6962 22.4101 20.1648 21.9167 20.4944C21.4234 20.8241 20.8433 21 20.25 21H12.75C12.5511 21 12.3603 20.921 12.2197 20.7803C12.079 20.6397 12 20.4489 12 20.25C12 20.0511 12.079 19.8603 12.2197 19.7197C12.3603 19.579 12.5511 19.5 12.75 19.5H20.25C20.6478 19.5 21.0294 19.342 21.3107 19.0607C21.592 18.7794 21.75 18.3978 21.75 18C21.75 17.6022 21.592 17.2206 21.3107 16.9393C21.0294 16.658 20.6478 16.5 20.25 16.5ZM12 26.25C12 26.0511 12.079 25.8603 12.2197 25.7197C12.3603 25.579 12.5511 25.5 12.75 25.5H27.813C28.703 25.5 29.573 25.7639 30.3131 26.2584C31.0531 26.7529 31.6299 27.4557 31.9705 28.2779C32.3111 29.1002 32.4002 30.005 32.2265 30.8779C32.0529 31.7508 31.6243 32.5526 30.995 33.182C30.3656 33.8113 29.5638 34.2399 28.6909 34.4135C27.818 34.5872 26.9132 34.4981 26.0909 34.1575C25.2687 33.8169 24.5659 33.2401 24.0714 32.5001C23.5769 31.76 23.313 30.89 23.313 30C23.313 29.8011 23.392 29.6103 23.5327 29.4697C23.6733 29.329 23.8641 29.25 24.063 29.25C24.2619 29.25 24.4527 29.329 24.5933 29.4697C24.734 29.6103 24.813 29.8011 24.813 30C24.813 30.5933 24.9889 31.1734 25.3186 31.6667C25.6482 32.1601 26.1168 32.5446 26.6649 32.7716C27.2131 32.9987 27.8163 33.0581 28.3983 32.9424C28.9802 32.8266 29.5148 32.5409 29.9343 32.1213C30.3539 31.7018 30.6396 31.1672 30.7554 30.5853C30.8711 30.0033 30.8117 29.4001 30.5846 28.852C30.3576 28.3038 29.9731 27.8352 29.4797 27.5056C28.9864 27.176 28.4063 27 27.813 27H12.75C12.5511 27 12.3603 26.921 12.2197 26.7803C12.079 26.6397 12 26.4489 12 26.25Z" fill="#E54D16"/>
</g>
<defs>
<clipPath id="clip0_39_57">
<rect width="24" height="24" fill="white" transform="translate(12 12)"/>
</clipPath>
</defs>
</svg>
