<svg width="13" height="6" viewBox="0 0 13 6" fill="none" xmlns="http://www.w3.org/2000/svg">
<path d="M0.834393 5.86548L6.00199 1.08354L11.1696 5.86548C11.2619 5.95109 11.3859 5.99902 11.5149 5.99902C11.644 5.99902 11.7679 5.95109 11.8603 5.86548C11.905 5.8239 11.9405 5.77427 11.9647 5.71949C11.989 5.66472 12.0015 5.6059 12.0015 5.54649C12.0015 5.48707 11.989 5.42826 11.9647 5.37348C11.9405 5.31871 11.905 5.26908 11.8603 5.2275L6.36284 0.139328C6.2663 0.0499966 6.13681 7.15256e-07 6.00199 7.15256e-07C5.86718 7.15256e-07 5.73769 0.0499966 5.64115 0.139328L0.143725 5.22651C0.0987038 5.26813 0.062921 5.31788 0.038487 5.37284C0.0140538 5.42779 0.00146627 5.48684 0.00146627 5.54649C0.00146627 5.60614 0.0140538 5.66519 0.038487 5.72014C0.062921 5.7751 0.0987038 5.82485 0.143725 5.86646C0.236053 5.95207 0.359996 6 0.48906 6C0.618123 6 0.742065 5.95207 0.834393 5.86646V5.86548Z" fill="#E54D16"/>
</svg>
