<svg width="20" height="20" viewBox="0 0 20 20" fill="none" xmlns="http://www.w3.org/2000/svg">
<g clip-path="url(#clip0_52_235)">
<path d="M18.75 1.8728L13.7456 1.87282V0.627197C13.7456 0.281885 13.4659 0.00219727 13.1206 0.00219727C12.7753 0.00219727 12.4956 0.281885 12.4956 0.627197V1.87251H7.49563V0.627197C7.49563 0.281885 7.21594 0.00219727 6.87063 0.00219727C6.52531 0.00219727 6.24563 0.281885 6.24563 0.627197V1.87251H1.25C0.559687 1.87251 0 2.4322 0 3.12251V18.7475C0 19.4378 0.559687 19.9975 1.25 19.9975H18.75C19.4403 19.9975 20 19.4378 20 18.7475V3.12251C20 2.43249 19.4403 1.8728 18.75 1.8728ZM18.75 18.7475H1.25V3.12251H6.24563V3.7522C6.24563 4.09749 6.52531 4.3772 6.87063 4.3772C7.21594 4.3772 7.49563 4.09749 7.49563 3.7522V3.12282H12.4956V3.75251C12.4956 4.09782 12.7753 4.37751 13.1206 4.37751C13.4659 4.37751 13.7456 4.09782 13.7456 3.75251V3.12282H18.75V18.7475ZM14.375 9.9978H15.625C15.97 9.9978 16.25 9.7178 16.25 9.3728V8.1228C16.25 7.7778 15.97 7.4978 15.625 7.4978H14.375C14.03 7.4978 13.75 7.7778 13.75 8.1228V9.3728C13.75 9.7178 14.03 9.9978 14.375 9.9978ZM14.375 14.9975H15.625C15.97 14.9975 16.25 14.7178 16.25 14.3725V13.1225C16.25 12.7775 15.97 12.4975 15.625 12.4975H14.375C14.03 12.4975 13.75 12.7775 13.75 13.1225V14.3725C13.75 14.7181 14.03 14.9975 14.375 14.9975ZM10.625 12.4975H9.375C9.03 12.4975 8.75 12.7775 8.75 13.1225V14.3725C8.75 14.7178 9.03 14.9975 9.375 14.9975H10.625C10.97 14.9975 11.25 14.7178 11.25 14.3725V13.1225C11.25 12.7778 10.97 12.4975 10.625 12.4975ZM10.625 7.4978H9.375C9.03 7.4978 8.75 7.7778 8.75 8.1228V9.3728C8.75 9.7178 9.03 9.9978 9.375 9.9978H10.625C10.97 9.9978 11.25 9.7178 11.25 9.3728V8.1228C11.25 7.77749 10.97 7.4978 10.625 7.4978ZM5.625 7.4978H4.375C4.03 7.4978 3.75 7.7778 3.75 8.1228V9.3728C3.75 9.7178 4.03 9.9978 4.375 9.9978H5.625C5.97 9.9978 6.25 9.7178 6.25 9.3728V8.1228C6.25 7.77749 5.97 7.4978 5.625 7.4978ZM5.625 12.4975H4.375C4.03 12.4975 3.75 12.7775 3.75 13.1225V14.3725C3.75 14.7178 4.03 14.9975 4.375 14.9975H5.625C5.97 14.9975 6.25 14.7178 6.25 14.3725V13.1225C6.25 12.7778 5.97 12.4975 5.625 12.4975Z" fill="#EFF0F3"/>
</g>
<defs>
<clipPath id="clip0_52_235">
<rect width="20" height="20" fill="white"/>
</clipPath>
</defs>
</svg>
