<svg width="48" height="50" viewBox="0 0 48 50" fill="none" xmlns="http://www.w3.org/2000/svg">
<ellipse cx="23.8603" cy="25.2045" rx="23.5683" ry="24.2449" fill="white"/>
<path d="M25.8398 18.1937C25.4414 17.4132 24.8944 16.7232 24.2313 16.1649C23.5682 15.6066 22.8025 15.1913 21.9801 14.9439C21.1576 14.6965 20.2951 14.6219 19.4441 14.7247C18.593 14.8275 17.7708 15.1056 17.0264 15.5422C16.282 15.9789 15.6307 16.5653 15.1114 17.2665C14.592 17.9676 14.2152 18.7691 14.0034 19.6233C13.7916 20.4775 13.7492 21.3668 13.8786 22.2382C14.0081 23.1095 14.3067 23.9452 14.7568 24.6953C13.9692 25.4584 13.4224 26.4472 13.1875 27.5337C12.9525 28.6202 13.0402 29.7542 13.4392 30.7889C13.8381 31.8235 14.53 32.711 15.425 33.3364C16.32 33.9617 17.377 34.2962 18.459 34.2963L26.8061 34.2953C27.8781 34.2945 28.9385 34.068 29.9222 33.6297C30.9058 33.1915 31.7919 32.5508 32.5259 31.7472C33.2598 30.9435 33.8261 29.9938 34.19 28.9565C34.5538 27.9192 34.7074 26.8163 34.6413 25.7157C34.5753 24.6151 34.291 23.54 33.8059 22.5567C33.3208 21.5733 32.6453 20.7025 31.8208 19.9977C30.9963 19.293 30.0404 18.7693 29.0118 18.4589C27.9832 18.1484 26.9037 18.0578 25.8398 18.1926V18.1937ZM23.8061 18.7432C22.8252 19.1615 21.9366 19.7793 21.1936 20.5596C20.4506 21.3399 19.8685 22.2666 19.4823 23.2841C18.4533 23.0812 17.3892 23.1889 16.4184 23.5942C15.9632 22.5949 15.8769 21.4593 16.1756 20.3993C16.4744 19.3394 17.1378 18.4274 18.042 17.8336C18.9463 17.2397 20.0297 17.0045 21.0901 17.1719C22.1505 17.3393 23.1155 17.8978 23.8051 18.7432H23.8061ZM18.459 32.2759C17.8924 32.2758 17.3345 32.1316 16.8351 31.8561C16.3358 31.5806 15.9103 31.1824 15.5967 30.6968C15.2832 30.2113 15.0911 29.6536 15.0377 29.0732C14.9844 28.4929 15.0713 27.908 15.2908 27.3706C15.5103 26.8332 15.8556 26.3599 16.2959 25.993C16.7362 25.626 17.2578 25.3767 17.8144 25.2673C18.371 25.1579 18.9452 25.1917 19.486 25.3658C20.0268 25.5399 20.5174 25.8489 20.914 26.2652V26.2147C20.914 25.0159 21.2596 23.844 21.907 22.8472C22.5545 21.8505 23.4747 21.0736 24.5513 20.6148C25.6279 20.1561 26.8126 20.036 27.9556 20.2699C29.0985 20.5038 30.1484 21.0811 30.9724 21.9287C31.7965 22.7764 32.3576 23.8564 32.585 25.0322C32.8123 26.2079 32.6956 27.4267 32.2497 28.5342C31.8037 29.6417 31.0485 30.5884 30.0796 31.2544C29.1106 31.9204 27.9715 32.2759 26.8061 32.2759H18.459Z" fill="#E54D16"/>
</svg>
