<svg width="295" height="167" viewBox="0 0 295 167" fill="none" xmlns="http://www.w3.org/2000/svg">
<g clip-path="url(#clip0_52_274)">
<path d="M149.727 292.004C218.762 292.159 274.852 236.321 275.008 167.285C275.163 98.2497 219.325 42.1596 150.289 42.0043C81.2538 41.849 25.1637 97.6874 25.0084 166.723C24.8531 235.758 80.6915 291.848 149.727 292.004Z" fill="url(#paint0_linear_52_274)"/>
<path d="M1.01636 162.212L295.016 161.831" stroke="black"/>
<path d="M26.033 155.726C27.1376 155.729 28.035 154.835 28.0375 153.731C28.04 152.626 27.1466 151.729 26.042 151.726C24.9374 151.724 24.04 152.617 24.0375 153.722C24.035 154.826 24.9284 155.724 26.033 155.726Z" fill="black"/>
<path d="M29.0735 137.732C30.1781 137.735 31.0755 136.841 31.078 135.737C31.0805 134.632 30.1871 133.735 29.0825 133.732C27.9779 133.73 27.0805 134.623 27.078 135.728C27.0755 136.832 27.969 137.73 29.0735 137.732Z" fill="black"/>
<path d="M27.0533 146.728C28.1578 146.73 29.0553 145.837 29.0577 144.733C29.0602 143.628 28.1668 142.73 27.0623 142.728C25.9577 142.726 25.0602 143.619 25.0578 144.724C25.0553 145.828 25.9487 146.726 27.0533 146.728Z" fill="black"/>
<path d="M33.0938 128.741C34.1983 128.744 35.0958 127.85 35.0983 126.746C35.1008 125.641 34.2073 124.744 33.1028 124.741C31.9982 124.739 31.1008 125.632 31.0983 126.737C31.0958 127.842 31.9892 128.739 33.0938 128.741Z" fill="black"/>
<path d="M36.1138 119.748C37.2184 119.751 38.1158 118.857 38.1183 117.753C38.1208 116.648 37.2274 115.751 36.1228 115.748C35.0182 115.746 34.1208 116.639 34.1183 117.744C34.1158 118.848 35.0092 119.746 36.1138 119.748Z" fill="black"/>
<path d="M39.1319 111.755C40.2364 111.757 41.1339 110.864 41.1364 109.759C41.1388 108.655 40.2454 107.757 39.1409 107.755C38.0363 107.753 37.1389 108.646 37.1364 109.75C37.1339 110.855 38.0273 111.752 39.1319 111.755Z" fill="black"/>
<path d="M44.1521 102.766C45.2567 102.769 46.1541 101.875 46.1566 100.771C46.1591 99.6661 45.2657 98.7687 44.1611 98.7662C43.0566 98.7637 42.1591 99.6571 42.1566 100.762C42.1541 101.866 43.0476 102.764 44.1521 102.766Z" fill="black"/>
<path d="M49.1702 94.7776C50.2748 94.78 51.1722 93.8866 51.1747 92.7821C51.1772 91.6775 50.2838 90.7801 49.1792 90.7776C48.0746 90.7751 47.1772 91.6685 47.1747 92.7731C47.1722 93.8776 48.0656 94.7751 49.1702 94.7776Z" fill="black"/>
<path d="M55.188 86.791C56.2926 86.7935 57.19 85.9001 57.1925 84.7955C57.195 83.6909 56.3016 82.7935 55.197 82.791C54.0924 82.7885 53.195 83.6819 53.1925 84.7865C53.19 85.8911 54.0835 86.7885 55.188 86.791Z" fill="black"/>
<path d="M62.2039 79.8069C63.3085 79.8093 64.2059 78.9159 64.2084 77.8114C64.2109 76.7068 63.3175 75.8094 62.2129 75.8069C61.1083 75.8044 60.2109 76.6978 60.2084 77.8024C60.2059 78.9069 61.0993 79.8044 62.2039 79.8069Z" fill="black"/>
<path d="M70.2195 72.8248C71.3241 72.8273 72.2215 71.9339 72.224 70.8293C72.2265 69.7247 71.3331 68.8273 70.2285 68.8248C69.1239 68.8223 68.2265 69.7157 68.224 70.8203C68.2215 71.9249 69.1149 72.8223 70.2195 72.8248Z" fill="black"/>
<path d="M79.2354 65.8451C80.3399 65.8475 81.2374 64.9541 81.2399 63.8496C81.2424 62.745 80.3489 61.8476 79.2444 61.8451C78.1398 61.8426 77.2424 62.736 77.2399 63.8406C77.2374 64.9451 78.1308 65.8426 79.2354 65.8451Z" fill="black"/>
<path d="M128.281 45.9553C129.385 45.9578 130.283 45.0644 130.285 43.9598C130.288 42.8552 129.394 41.9578 128.29 41.9553C127.185 41.9528 126.288 42.8462 126.285 43.9508C126.283 45.0554 127.176 45.9528 128.281 45.9553Z" fill="black"/>
<path d="M98.26 54.8878C99.3646 54.8903 100.262 53.9969 100.265 52.8923C100.267 51.7877 99.3736 50.8903 98.269 50.8878C97.1645 50.8853 96.267 51.7787 96.2645 52.8833C96.2621 53.9879 97.1555 54.8853 98.26 54.8878Z" fill="black"/>
<path d="M89.2488 59.8676C90.3534 59.8701 91.2508 58.9767 91.2533 57.8722C91.2558 56.7676 90.3624 55.8701 89.2578 55.8677C88.1532 55.8652 87.2558 56.7586 87.2533 57.8632C87.2508 58.9677 88.1442 59.8652 89.2488 59.8676Z" fill="black"/>
<path d="M118.275 47.9328C119.38 47.9353 120.277 47.0419 120.28 45.9373C120.282 44.8328 119.389 43.9353 118.284 43.9328C117.18 43.9304 116.282 44.8238 116.28 45.9283C116.277 47.0329 117.171 47.9303 118.275 47.9328Z" fill="black"/>
<path d="M148.286 43.0003C149.391 43.0028 150.288 42.1094 150.291 41.0048C150.293 39.9003 149.4 39.0028 148.295 39.0003C147.191 38.9979 146.293 39.8913 146.291 40.9958C146.288 42.1004 147.182 42.9979 148.286 43.0003Z" fill="black"/>
<path d="M138.284 43.9779C139.389 43.9804 140.286 43.0869 140.289 41.9824C140.291 40.8778 139.398 39.9804 138.293 39.9779C137.189 39.9754 136.291 40.8688 136.289 41.9734C136.286 43.078 137.18 43.9754 138.284 43.9779Z" fill="black"/>
<path d="M108.269 50.9104C109.373 50.9129 110.271 50.0194 110.273 48.9149C110.276 47.8103 109.382 46.9129 108.278 46.9104C107.173 46.9079 106.276 47.8013 106.273 48.9059C106.271 50.0104 107.164 50.9079 108.269 50.9104Z" fill="black"/>
<path d="M271.011 154.974C270.474 154.004 270.828 152.785 271.802 152.25C272.776 151.716 274 152.068 274.537 153.038C275.074 154.008 274.72 155.227 273.746 155.762C272.772 156.296 271.548 155.943 271.011 154.974Z" fill="black"/>
<path d="M268.052 136.967C267.515 135.997 267.869 134.778 268.843 134.244C269.817 133.709 271.041 134.062 271.578 135.031C272.115 136.001 271.761 137.22 270.787 137.755C269.813 138.289 268.589 137.937 268.052 136.967Z" fill="black"/>
<path d="M270.031 145.972C269.494 145.002 269.848 143.783 270.822 143.248C271.796 142.714 273.02 143.066 273.557 144.036C274.094 145.006 273.74 146.225 272.766 146.76C271.792 147.294 270.568 146.942 270.031 145.972Z" fill="black"/>
<path d="M265.074 126.96C264.537 125.991 264.891 124.771 265.865 124.237C266.839 123.702 268.063 124.055 268.6 125.024C269.137 125.994 268.783 127.213 267.809 127.748C266.835 128.283 265.611 127.93 265.074 126.96Z" fill="black"/>
<path d="M261.094 117.951C260.557 116.982 260.911 115.763 261.885 115.228C262.859 114.693 264.083 115.046 264.62 116.016C265.157 116.985 264.803 118.204 263.829 118.739C262.855 119.274 261.631 118.921 261.094 117.951Z" fill="black"/>
<path d="M257.115 108.942C256.578 107.973 256.932 106.753 257.906 106.219C258.88 105.684 260.104 106.037 260.641 107.007C261.178 107.976 260.824 109.195 259.85 109.73C258.876 110.265 257.652 109.912 257.115 108.942Z" fill="black"/>
<path d="M252.133 100.931C251.596 99.9616 251.95 98.7422 252.924 98.2077C253.898 97.6731 255.122 98.0257 255.659 98.9953C256.196 99.9649 255.842 101.184 254.868 101.719C253.894 102.253 252.67 101.901 252.133 100.931Z" fill="black"/>
<path d="M247.151 92.92C246.614 91.9504 246.968 90.731 247.942 90.1964C248.916 89.6618 250.14 90.0145 250.677 90.984C251.214 91.9536 250.86 93.173 249.886 93.7076C248.913 94.2422 247.688 93.8895 247.151 92.92Z" fill="black"/>
<path d="M240.169 84.9042C239.632 83.9346 239.986 82.7153 240.96 82.1807C241.933 81.6461 243.158 81.9987 243.695 82.9683C244.232 83.9379 243.878 85.1572 242.904 85.6918C241.93 86.2264 240.706 85.8738 240.169 84.9042Z" fill="black"/>
<path d="M232.187 76.8863C231.65 75.9167 232.004 74.6973 232.978 74.1627C233.952 73.6281 235.176 73.9808 235.713 74.9504C236.25 75.9199 235.896 77.1393 234.922 77.6739C233.948 78.2085 232.724 77.8558 232.187 76.8863Z" fill="black"/>
<path d="M224.203 69.8683C223.666 68.8987 224.02 67.6794 224.994 67.1448C225.968 66.6102 227.192 66.9628 227.729 67.9324C228.266 68.902 227.912 70.1214 226.938 70.6559C225.965 71.1905 224.74 70.8379 224.203 69.8683Z" fill="black"/>
<path d="M214.218 62.8459C213.681 61.8763 214.035 60.6569 215.009 60.1223C215.983 59.5877 217.207 59.9404 217.744 60.91C218.281 61.8795 217.927 63.0989 216.953 63.6335C215.979 64.1681 214.755 63.8154 214.218 62.8459Z" fill="black"/>
<path d="M165.261 43.7356C164.724 42.7661 165.078 41.5467 166.052 41.0121C167.026 40.4775 168.25 40.8301 168.787 41.7997C169.324 42.7693 168.97 43.9887 167.996 44.5233C167.022 45.0578 165.798 44.7052 165.261 43.7356Z" fill="black"/>
<path d="M196.241 52.8053C195.704 51.8358 196.058 50.6164 197.032 50.0818C198.006 49.5472 199.23 49.8998 199.767 50.8694C200.304 51.839 199.95 53.0584 198.976 53.593C198.002 54.1275 196.778 53.7749 196.241 52.8053Z" fill="black"/>
<path d="M205.229 57.8256C204.692 56.856 205.046 55.6367 206.02 55.1021C206.994 54.5675 208.218 54.9201 208.755 55.8897C209.292 56.8593 208.938 58.0786 207.964 58.6132C206.99 59.1478 205.766 58.7952 205.229 57.8256Z" fill="black"/>
<path d="M175.257 45.7582C174.72 44.7886 175.074 43.5693 176.048 43.0347C177.022 42.5001 178.246 42.8527 178.783 43.8223C179.32 44.7919 178.966 46.0112 177.992 46.5458C177.018 47.0804 175.794 46.7278 175.257 45.7582Z" fill="black"/>
<path d="M158.315 40.0203C159.423 40.0228 160.316 40.9253 160.31 42.036C160.303 43.1468 159.399 44.0452 158.291 44.0427C157.183 44.0402 156.29 43.1378 156.296 42.027C156.303 40.9162 157.206 40.0178 158.315 40.0203Z" fill="black"/>
<path d="M185.25 48.7807C184.713 47.8111 185.067 46.5917 186.041 46.0571C187.015 45.5226 188.239 45.8752 188.776 46.8448C189.313 47.8143 188.959 49.0337 187.985 49.5683C187.011 50.1029 185.787 49.7503 185.25 48.7807Z" fill="black"/>
<path d="M25.0172 162.723L275.017 163.286L274.704 302.285L24.7046 301.723L25.0172 162.723Z" fill="white"/>
<path d="M25.0061 167.723C27.7675 167.729 30.0111 165.496 30.0173 162.734C30.0235 159.973 27.79 157.729 25.0286 157.723C22.2671 157.717 20.0235 159.95 20.0173 162.712C20.0111 165.473 22.2446 167.717 25.0061 167.723Z" fill="black"/>
<path d="M148.008 167C150.769 167.006 153.013 164.773 153.019 162.011C153.025 159.25 150.792 157.006 148.03 157C145.269 156.994 143.025 159.227 143.019 161.989C143.013 164.75 145.246 166.994 148.008 167Z" fill="black"/>
<path d="M280.019 162.297C280.013 165.058 277.769 167.292 275.008 167.286C272.246 167.279 270.013 165.036 270.019 162.274C270.025 159.513 272.269 157.279 275.03 157.286C277.791 157.292 280.025 159.535 280.019 162.297Z" fill="black"/>
</g>
<path d="M196 22.7533C194.232 22.7533 192.536 22.0509 191.286 20.8007C190.036 19.5504 189.333 17.8547 189.333 16.0866C189.333 14.3185 190.036 12.6228 191.286 11.3726C192.536 10.1223 194.232 9.41996 196 9.41996C197.768 9.41996 199.464 10.1223 200.714 11.3726C201.964 12.6228 202.667 14.3185 202.667 16.0866C202.667 17.8547 201.964 19.5504 200.714 20.8007C199.464 22.0509 197.768 22.7533 196 22.7533ZM196 2.7533C196.354 2.7533 196.693 2.89377 196.943 3.14382C197.193 3.39387 197.333 3.73301 197.333 4.08663V6.7533C197.333 7.10692 197.193 7.44606 196.943 7.69611C196.693 7.94615 196.354 8.08663 196 8.08663C195.646 8.08663 195.307 7.94615 195.057 7.69611C194.807 7.44606 194.667 7.10692 194.667 6.7533V4.08663C194.667 3.73301 194.807 3.39387 195.057 3.14382C195.307 2.89377 195.646 2.7533 196 2.7533ZM196 24.0866C196.354 24.0866 196.693 24.2271 196.943 24.4772C197.193 24.7272 197.333 25.0663 197.333 25.42V28.0866C197.333 28.4403 197.193 28.7794 196.943 29.0294C196.693 29.2795 196.354 29.42 196 29.42C195.646 29.42 195.307 29.2795 195.057 29.0294C194.807 28.7794 194.667 28.4403 194.667 28.0866V25.42C194.667 25.0663 194.807 24.7272 195.057 24.4772C195.307 24.2271 195.646 24.0866 196 24.0866ZM184 14.7533H186.667C187.02 14.7533 187.36 14.8938 187.61 15.1438C187.86 15.3939 188 15.733 188 16.0866C188 16.4403 187.86 16.7794 187.61 17.0294C187.36 17.2795 187.02 17.42 186.667 17.42H184C183.646 17.42 183.307 17.2795 183.057 17.0294C182.807 16.7794 182.667 16.4403 182.667 16.0866C182.667 15.733 182.807 15.3939 183.057 15.1438C183.307 14.8938 183.646 14.7533 184 14.7533ZM205.333 14.7533H208C208.354 14.7533 208.693 14.8938 208.943 15.1438C209.193 15.3939 209.333 15.733 209.333 16.0866C209.333 16.4403 209.193 16.7794 208.943 17.0294C208.693 17.2795 208.354 17.42 208 17.42H205.333C204.98 17.42 204.641 17.2795 204.391 17.0294C204.141 16.7794 204 16.4403 204 16.0866C204 15.733 204.141 15.3939 204.391 15.1438C204.641 14.8938 204.98 14.7533 205.333 14.7533ZM205.428 6.65863C205.678 6.90867 205.818 7.24774 205.818 7.6013C205.818 7.95485 205.678 8.29393 205.428 8.54396L203.543 10.4293C203.42 10.5566 203.273 10.6582 203.11 10.7281C202.947 10.798 202.772 10.8348 202.595 10.8363C202.418 10.8378 202.243 10.8041 202.079 10.7371C201.915 10.67 201.766 10.571 201.641 10.4458C201.516 10.3206 201.417 10.1718 201.35 10.0079C201.283 9.84404 201.249 9.66847 201.25 9.49143C201.252 9.31439 201.289 9.13943 201.359 8.97676C201.428 8.81408 201.53 8.66696 201.657 8.54396L203.543 6.65863C203.793 6.40867 204.132 6.26825 204.485 6.26825C204.839 6.26825 205.178 6.40867 205.428 6.65863ZM190.343 21.744C190.593 21.994 190.733 22.3331 190.733 22.6866C190.733 23.0402 190.593 23.3793 190.343 23.6293L188.457 25.5146C188.334 25.642 188.187 25.7436 188.025 25.8134C187.862 25.8833 187.687 25.9201 187.51 25.9216C187.333 25.9232 187.157 25.8894 186.993 25.8224C186.83 25.7554 186.681 25.6563 186.556 25.5312C186.43 25.406 186.331 25.2571 186.264 25.0932C186.197 24.9294 186.164 24.7538 186.165 24.5768C186.167 24.3997 186.203 24.2248 186.273 24.0621C186.343 23.8994 186.445 23.7523 186.572 23.6293L188.457 21.744C188.707 21.494 189.047 21.3536 189.4 21.3536C189.754 21.3536 190.093 21.494 190.343 21.744ZM188.457 6.65863L190.343 8.54396C190.586 8.79543 190.72 9.13224 190.717 9.48183C190.714 9.83143 190.574 10.1658 190.327 10.4131C190.079 10.6603 189.745 10.8005 189.395 10.8035C189.046 10.8066 188.709 10.6722 188.457 10.4293L186.573 8.54396C186.331 8.29249 186.196 7.95569 186.199 7.60609C186.202 7.2565 186.342 6.92208 186.59 6.67487C186.837 6.42766 187.171 6.28744 187.521 6.2844C187.87 6.28136 188.207 6.41575 188.459 6.65863H188.457ZM203.543 21.744L205.428 23.6293C205.671 23.8808 205.805 24.2176 205.802 24.5672C205.799 24.9168 205.659 25.2512 205.412 25.4984C205.165 25.7456 204.83 25.8858 204.481 25.8889C204.131 25.8919 203.794 25.7575 203.543 25.5146L201.657 23.6293C201.53 23.5063 201.428 23.3592 201.359 23.1965C201.289 23.0338 201.252 22.8589 201.25 22.6818C201.249 22.5048 201.283 22.3292 201.35 22.1654C201.417 22.0015 201.516 21.8526 201.641 21.7274C201.766 21.6022 201.915 21.5032 202.079 21.4362C202.243 21.3692 202.418 21.3354 202.595 21.337C202.772 21.3385 202.947 21.3753 203.11 21.4452C203.273 21.515 203.42 21.6166 203.543 21.744Z" fill="#FF8356"/>
<defs>
<linearGradient id="paint0_linear_52_274" x1="48.6746" y1="92.7764" x2="321" y2="190.5" gradientUnits="userSpaceOnUse">
<stop stop-color="#FF986B"/>
<stop stop-color="#F88252" stop-opacity="0.708078"/>
<stop offset="0.0927996" stop-color="#F06C39" stop-opacity="0.413333"/>
<stop offset="0.395833" stop-color="#E54D16" stop-opacity="0"/>
<stop offset="0.71875" stop-color="#E54D16" stop-opacity="0"/>
</linearGradient>
<clipPath id="clip0_52_274">
<rect width="295" height="129" fill="white" transform="translate(0 38)"/>
</clipPath>
</defs>
</svg>
