<svg width="48" height="48" viewBox="0 0 48 48" fill="none" xmlns="http://www.w3.org/2000/svg">
<path d="M24 34.13C21.3478 34.13 18.8043 33.0764 16.9289 31.2011C15.0536 29.3257 14 26.7822 14 24.13C14 21.4778 15.0536 18.9343 16.9289 17.0589C18.8043 15.1836 21.3478 14.13 24 14.13C26.6522 14.13 29.1957 15.1836 31.0711 17.0589C32.9464 18.9343 34 21.4778 34 24.13C34 26.7822 32.9464 29.3257 31.0711 31.2011C29.1957 33.0764 26.6522 34.13 24 34.13ZM24 4.13C24.5304 4.13 25.0391 4.34072 25.4142 4.71579C25.7893 5.09086 26 5.59957 26 6.13V10.13C26 10.6604 25.7893 11.1691 25.4142 11.5442C25.0391 11.9193 24.5304 12.13 24 12.13C23.4696 12.13 22.9609 11.9193 22.5858 11.5442C22.2107 11.1691 22 10.6604 22 10.13V6.13C22 5.59957 22.2107 5.09086 22.5858 4.71579C22.9609 4.34072 23.4696 4.13 24 4.13ZM24 36.13C24.5304 36.13 25.0391 36.3407 25.4142 36.7158C25.7893 37.0909 26 37.5996 26 38.13V42.13C26 42.6604 25.7893 43.1691 25.4142 43.5442C25.0391 43.9193 24.5304 44.13 24 44.13C23.4696 44.13 22.9609 43.9193 22.5858 43.5442C22.2107 43.1691 22 42.6604 22 42.13V38.13C22 37.5996 22.2107 37.0909 22.5858 36.7158C22.9609 36.3407 23.4696 36.13 24 36.13ZM6 22.13H10C10.5304 22.13 11.0391 22.3407 11.4142 22.7158C11.7893 23.0909 12 23.5996 12 24.13C12 24.6604 11.7893 25.1691 11.4142 25.5442C11.0391 25.9193 10.5304 26.13 10 26.13H6C5.46957 26.13 4.96086 25.9193 4.58579 25.5442C4.21071 25.1691 4 24.6604 4 24.13C4 23.5996 4.21071 23.0909 4.58579 22.7158C4.96086 22.3407 5.46957 22.13 6 22.13ZM38 22.13H42C42.5304 22.13 43.0391 22.3407 43.4142 22.7158C43.7893 23.0909 44 23.5996 44 24.13C44 24.6604 43.7893 25.1691 43.4142 25.5442C43.0391 25.9193 42.5304 26.13 42 26.13H38C37.4696 26.13 36.9609 25.9193 36.5858 25.5442C36.2107 25.1691 36 24.6604 36 24.13C36 23.5996 36.2107 23.0909 36.5858 22.7158C36.9609 22.3407 37.4696 22.13 38 22.13ZM38.142 9.988C38.5169 10.3631 38.7276 10.8717 38.7276 11.402C38.7276 11.9323 38.5169 12.4409 38.142 12.816L35.314 15.644C35.1295 15.835 34.9088 15.9874 34.6648 16.0922C34.4208 16.197 34.1584 16.2522 33.8928 16.2545C33.6272 16.2568 33.3639 16.2062 33.1181 16.1056C32.8723 16.0051 32.649 15.8566 32.4612 15.6688C32.2734 15.481 32.1249 15.2577 32.0244 15.0119C31.9238 14.7661 31.8732 14.5028 31.8755 14.2372C31.8778 13.9716 31.933 13.7092 32.0378 13.4652C32.1426 13.2212 32.295 13.0005 32.486 12.816L35.314 9.988C35.6891 9.61306 36.1977 9.40243 36.728 9.40243C37.2583 9.40243 37.7669 9.61306 38.142 9.988ZM15.514 32.616C15.8889 32.9911 16.0996 33.4997 16.0996 34.03C16.0996 34.5603 15.8889 35.069 15.514 35.444L12.686 38.272C12.5015 38.463 12.2808 38.6154 12.0368 38.7202C11.7928 38.825 11.5304 38.8802 11.2648 38.8825C10.9992 38.8848 10.7359 38.8342 10.4901 38.7336C10.2443 38.6331 10.021 38.4846 9.83321 38.2968C9.64542 38.109 9.49692 37.8857 9.39636 37.6399C9.29579 37.3941 9.24519 37.1308 9.2475 36.8652C9.24981 36.5996 9.30498 36.3372 9.4098 36.0932C9.51462 35.8492 9.66698 35.6285 9.858 35.444L12.686 32.616C13.0611 32.2411 13.5697 32.0304 14.1 32.0304C14.6303 32.0304 15.1389 32.2411 15.514 32.616ZM12.686 9.988L15.514 12.816C15.8783 13.1932 16.0799 13.6984 16.0753 14.2228C16.0708 14.7472 15.8605 15.2488 15.4896 15.6196C15.1188 15.9905 14.6172 16.2008 14.0928 16.2054C13.5684 16.2099 13.0632 16.0083 12.686 15.644L9.86 12.816C9.49568 12.4388 9.2941 11.9336 9.29865 11.4092C9.30321 10.8848 9.51355 10.3832 9.88436 10.0124C10.2552 9.64155 10.7568 9.43121 11.2812 9.42666C11.8056 9.4221 12.3108 9.62369 12.688 9.988H12.686ZM35.314 32.616L38.142 35.444C38.5063 35.8212 38.7079 36.3264 38.7033 36.8508C38.6988 37.3752 38.4885 37.8768 38.1176 38.2476C37.7468 38.6185 37.2452 38.8288 36.7208 38.8334C36.1964 38.8379 35.6912 38.6363 35.314 38.272L32.486 35.444C32.295 35.2595 32.1426 35.0388 32.0378 34.7948C31.933 34.5508 31.8778 34.2884 31.8755 34.0228C31.8732 33.7572 31.9238 33.4939 32.0244 33.2481C32.1249 33.0023 32.2734 32.779 32.4612 32.5912C32.649 32.4034 32.8723 32.2549 33.1181 32.1544C33.3639 32.0538 33.6272 32.0032 33.8928 32.0055C34.1584 32.0078 34.4208 32.063 34.6648 32.1678C34.9088 32.2726 35.1295 32.425 35.314 32.616Z" fill="#FF8356"/>
</svg>
